# AST/ASF file generated using VICON BodyLanguage
# -----------------------------------------------
:version 1.10
:name VICON
:units
  mass 1.0
  length 0.45
  angle deg
:documentation
   .ast/.asf automatically generated from VICON data using
   VICON BodyBuilder and BodyLanguage model FoxedUp or BRILLIANT.MOD
:root
   order TX TY TZ RX RY RZ
   axis XYZ
   position 0 0 0  
   orientation 0 0 0 
:bonedata
  begin
     id 1 
     name lhipjoint
     direction 0.543289 -0.788407 0.288535 
     length 2.57127 
     axis 0 0 0  XYZ
  end
  begin
     id 2 
     name lfemur
     direction 0.34202 -0.939693 0  
     length 8.47298  
     axis 0 0 20  XYZ
    dof rx ry rz
    limits (-160.0 20.0)
           (-70.0 70.0)
           (-60.0 70.0)
  end
  begin
     id 3 
     name ltibia
     direction 0.34202 -0.939693 0   
     length 8.13367   
     axis 0 0 20   XYZ
    dof rx
    limits (-10.0 170.0)
  end
  begin
     id 4 
     name lfoot
     direction 0.114037 -0.313314 0.942778   
     length 2.67113   
     axis -90 7.62852e-016 20   XYZ
    dof rx rz
    limits (-45.0 90.0)
           (-70.0 20.0)
  end
  begin
     id 5 
     name ltoes
     direction 1.536e-011 -4.21847e-011 1   
     length 1.32217   
     axis -90 7.62852e-016 20   XYZ
    dof rx
    limits (-90.0 20.0)
  end
  begin
     id 6 
     name rhipjoint
     direction -0.571293 -0.770752 0.282074   
     length 2.63017  
     axis 0 0 0  XYZ 
  end
  begin
     id 7 
     name rfemur
     direction -0.34202 -0.939693 0   
     length 8.60885   
     axis 0 0 -20   XYZ
    dof rx ry rz
    limits (-160.0 20.0)
           (-70.0 70.0)
           (-70.0 60.0)
  end
  begin
     id 8 
     name rtibia
     direction -0.34202 -0.939693 0   
     length 8.07673   
     axis 0 0 -20   XYZ
    dof rx
    limits (-10.0 170.0)
 end
 begin
     id 9 
     name rfoot
     direction -0.121336 -0.333368 0.934956   
     length 2.81602  
     axis -90 -7.62852e-016 -20   XYZ
    dof rx rz
    limits (-45.0 90.0)
           (-20.0 70.0)
  end
  begin
     id 10 
     name rtoes
     direction -1.53491e-011 -4.21808e-011 1   
     length 1.38905   
     axis -90 -7.62852e-016 -20   XYZ
    dof rx
    limits (-90.0 20.0)
  end
  begin
     id 11 
     name lowerback
     direction 0.0136776 0.999869 -0.00861835   
     length 2.14087   
     axis 0 0 0   XYZ
    dof rx ry rz
    limits (-20.0 45.0)
           (-30.0 30.0)
           (-30.0 30.0)
  end
  begin
     id 12 
     name upperback
     direction -0.00789158 0.999804 0.0181308   
     length 2.14151   
     axis 0 0 0   XYZ
    dof rx ry rz
    limits (-20.0 45.0)
           (-30.0 30.0)
           (-30.0 30.0)
  end
  begin
     id 13 
     name thorax
     direction -0.0135231 0.999666 0.0220247   
     length 2.13644   
     axis 0 0 0   XYZ
    dof rx ry rz
    limits (-20.0 45.0)
           (-30.0 30.0)
           (-30.0 30.0)
  end
  begin
     id 14 
     name lowerneck
     direction -0.0392259 0.997317 0.0618018   
     length 1.65045   
     axis 0 0 0   XYZ
    dof rx ry rz
    limits (-20.0 45.0)
           (-30.0 30.0)
           (-30.0 30.0)
  end
  begin
     id 15 
     name upperneck
     direction 0.0765547 0.994276 -0.0745319   
     length 1.66045   
     axis 0 0 0   XYZ
    dof rx ry rz
    limits (-20.0 45.0)
           (-30.0 30.0)
           (-30.0 30.0)
  end
  begin
     id 16
     name head
     direction 0.0241564 0.999031 -0.036785  
     length 1.66594  
     axis 0 0 0   XYZ
    dof rx ry rz
    limits (-20.0 45.0)
           (-30.0 30.0)
           (-30.0 30.0)
  end
  begin
     id 17 
     name lclavicle
     direction 0.967398 0.249018 0.0461573  
     length 3.75176  
     axis 0 0 0   XYZ
    dof ry rz
    limits (-20.0 10.0)
           (0.0 20.0)
  end
  begin
     id 18 
     name lhumerus
     direction 1 -4.48963e-011 -3.05005e-027   
     length 5.93342   
     axis 180 -30 -90   XYZ
    dof rx ry rz
    limits (-60.0 90.0)
           (-90.0 90.0)
           (-90.0 90.0)
  end
  begin
     id 19
     name lradius
     direction 1 -4.48957e-011 1.07006e-026   
     length 3.94763   
     axis 180 -30 -90   XYZ
    dof rx
    limits (-10.0 170.0)
  end
  begin
     id 20
     name lwrist
     direction 1 -4.48978e-011 1.92422e-026   
     length 1.97382   
     axis -1.18182e-014 90 90   XYZ
    dof ry
    limits (-180.0 0.0)
 end
  begin
     id 21 
     name lhand
     direction 1 -4.48931e-011 3.84844e-026   
     length 0.560187   
     axis -2.45563e-014 90 90   XYZ
    dof rx rz
    limits (-90.0 90.0)
           (-45.0 45.0)
  end
  begin
     id 22 
     name lfingers
     direction 1 -4.48952e-011 7.69687e-026   
     length 0.451637   
     axis -4.91126e-014 90 90   XYZ
    dof rx
    limits (0.0 90.0)
  end
  begin
     id 23
     name lthumb
     direction 0.707107 -6.34901e-011 0.707107   
     length 0.648463   
     axis -90 45 2.85299e-015   XYZ
    dof rx rz
    limits (-45.0 45.0)
           (-45.0 45.0)
  end
  begin
     id 24 
     name rclavicle
     direction -0.965946 0.258716 0.00371831   
     length 3.63667  
     axis 0 0 0   XYZ 
    dof ry rz
    limits (-10.0 20.0)
           (-20.0 0.0)
  end
  begin
     id 25 
     name rhumerus
     direction -1 -4.48966e-011 -1.78361e-028  
     length 6.28647   
     axis 180 30 90   XYZ
    dof rx ry rz
    limits (-90.0 60.0)
           (-90.0 90.0)
           (-90.0 90.0)
  end
  begin
     id 26 
     name rradius
     direction -1 -4.48961e-011 1.05248e-026   
     length 3.81645   
     axis 180 30 90   XYZ
    dof rx
    limits (-10.0 170.0)
  end
  begin
     id 27 
     name rwrist
     direction -1 -4.48979e-011 1.92422e-026   
     length 1.90822   
     axis -1.18182e-014 -90 -90   XYZ
    dof ry
    limits (-180.0 0.0)
  end
  begin
     id 28
     name rhand
     direction -1 -4.48937e-011 3.84844e-026   
     length 0.646185   
     axis -2.45563e-014 -90 -90   XYZ
    dof rx rz
    limits (-90.0 90.0)
           (-45.0 45.0)
  end
  begin
     id 29
     name rfingers
     direction -1 -4.48953e-011 7.69687e-026   
     length 0.520971   
     axis -4.91126e-014 -90 -90   XYZ
    dof rx
    limits (0.0 90.0)
  end
  begin
     id 30
     name rthumb
     direction -0.707107 -6.3494e-011 0.707107   
     length 0.748013   
     axis -90 -45 -2.85299e-015   XYZ
    dof rx rz
    limits (-45.0 45.0)
           (-45.0 45.0)
  end
:hierarchy
  begin
    root lhipjoint rhipjoint lowerback
    lhipjoint lfemur
    lfemur ltibia
    ltibia lfoot
    lfoot ltoes
    rhipjoint rfemur
    rfemur rtibia
    rtibia rfoot
    rfoot rtoes
    lowerback upperback
    upperback thorax
    thorax lowerneck lclavicle rclavicle
    lowerneck upperneck
    upperneck head
    lclavicle lhumerus
    lhumerus lradius
    lradius lwrist
    lwrist lhand lthumb
    lhand lfingers
    rclavicle rhumerus
    rhumerus rradius
    rradius rwrist
    rwrist rhand rthumb
    rhand rfingers
  end

#!OML:ASF H:\HAZMAT1\Patient Classification 1\Patient 3\Session 1\dancer.ASF
:FULLY-SPECIFIED
:DEGREES
195
upperback 5.000430 9.802710 7.969350
rfoot -20.382900 -25.549000
lradius 12.373200
lthumb -1.617580 68.961700
rradius 10.983800
lwrist -60.720798
rhand -25.952299 -5.122640
rhumerus -27.116301 1.253680 -69.766899
lowerneck -14.622600 -2.052670 7.910530
lhand -28.239901 38.987999
ltibia 40.519100
head 3.164110 -2.469740 -6.320560
rwrist 33.990398
lfingers 7.125020
rtoes -0.393276
lowerback -0.561338 7.393220 -12.734900
rfingers 7.125020
lclavicle 0.000000 0.000000
upperneck 3.875890 -3.394740 -15.378800
rfemur -68.228600 16.792500 15.026700
thorax 2.106320 4.352200 15.949000
rclavicle 0.000000 0.000000
rtibia 40.128101
lfoot -23.507500 20.229099
lhumerus -9.924810 46.195900 38.076000
rthumb 0.591857 -35.101601
root -31.730000 19.200300 32.220501 184.949997 -80.510597 605.098022
ltoes 7.453420
lfemur -85.684601 3.828850 -3.504340
196
upperback 0.274906 15.947600 4.249800
rfoot 19.687500 -32.252102
lradius 10.848300
lthumb 0.136813 71.305603
rradius 20.736000
lwrist -61.553902
rhand -28.826401 -27.498600
rhumerus 12.489400 41.231899 -50.741699
lowerneck -14.317400 -8.223450 4.693330
lhand -26.423401 41.325901
ltibia 15.678900
head 3.935660 -6.021920 -4.358700
rwrist 23.079399
lfingers 7.125020
rtoes 36.177101
lowerback -17.560699 9.163750 -19.544800
rfingers 7.125020
lclavicle 0.000000 -0.000000
upperneck 8.120930 -11.208800 -9.202090
rfemur -10.602100 -4.502040 25.589100
thorax 3.445500 7.646310 18.095600
rclavicle 0.000000 -0.000000
rtibia 31.079800
lfoot -7.046810 23.049400
lhumerus -55.124298 33.881302 6.954960
rthumb -2.184060 -57.467201
root -31.114799 19.927299 32.650101 174.169998 -78.401497 625.241028
ltoes 6.570750
lfemur -83.079102 8.000800 6.450570
197
upperback -6.249780 16.900600 -2.136950
rfoot 26.100800 -34.467602
lradius 9.633330
lthumb 26.111200 60.138500
rradius 35.321098
lwrist -46.081001
rhand -23.301399 -43.733002
rhumerus 53.531601 0.800549 -6.558800
lowerneck -13.264600 -7.222440 13.953900
lhand 0.543890 31.913601
ltibia -0.000000
head 6.711300 -5.200180 -4.880310
rwrist -3.328810
lfingers 7.125020
rtoes 45.216099
lowerback -15.970100 11.564100 -9.812620
rfingers 7.125020
lclavicle -0.000000 0.000000
upperneck 18.476000 -11.902900 -4.970770
rfemur 5.232770 -12.444200 8.806580
thorax -0.168997 8.687770 5.244860
rclavicle -0.000000 0.000000
rtibia 86.600197
lfoot 3.716150 31.669701
lhumerus -64.768303 7.779450 20.829901
rthumb 3.152020 -73.689499
root -30.645500 20.625099 32.927299 162.794006 -71.951897 629.914978
ltoes 9.997820
lfemur -68.205101 9.540970 8.932930
198
upperback -4.793430 11.965000 -3.366440
rfoot 33.975700 -16.513100
lradius 5.166100
lthumb 33.413101 58.250099
rradius 61.982101
lwrist -53.952400
rhand 5.602580 -26.929600
rhumerus 42.682301 -42.722401 -0.295319
lowerneck -11.251600 -0.675082 25.555500
lhand 8.195730 31.337900
ltibia 18.690300
head 8.512680 -1.157600 -6.649380
rwrist -15.010200
lfingers 7.125020
rtoes 40.172100
lowerback -10.103600 8.825720 -2.124280
rfingers 7.125020
lclavicle -0.000000 0.000000
upperneck 23.268900 -5.464470 -5.586860
rfemur -11.702400 -25.731400 5.943560
thorax 0.864671 5.983110 -1.024470
rclavicle -0.000000 0.000000
rtibia 115.762001
lfoot -15.875900 34.595901
lhumerus -48.833500 15.048300 49.584900
rthumb 30.944599 -54.341702
root -31.193800 20.595699 33.028099 155.147995 -66.510696 617.653992
ltoes 18.478500
lfemur -53.117199 1.596120 11.226900
199
upperback -2.560290 -1.609480 -1.739000
rfoot 32.245899 -3.649950
lradius 11.783200
lthumb 9.408940 27.448200
rradius 62.160999
lwrist -51.307201
rhand -38.091702 -29.304100
rhumerus 4.366920 -58.216999 24.189301
lowerneck -3.007880 1.353750 19.244101
lhand -16.820101 -2.321760
ltibia 27.076900
head 8.234540 0.957843 -6.040590
rwrist -18.993999
lfingers 7.125020
rtoes 33.907600
lowerback -2.692550 -1.122670 3.156580
rfingers 7.125020
lclavicle -0.000000 0.000000
upperneck 24.493299 0.629366 -8.134470
rfemur -52.698799 -4.248610 19.212099
thorax -1.258900 -0.891836 -3.582740
rclavicle -0.000000 0.000000
rtibia 119.866997
lfoot -14.773100 3.262590
lhumerus 27.121799 -2.140250 81.512703
rthumb -11.127700 -58.988998
root -31.838900 20.198099 33.223099 92.642097 -78.978203 655.057007
ltoes 13.563700
lfemur -39.104698 -34.109200 3.610100
200
upperback -1.343740 -12.300100 1.101640
rfoot 17.431601 -1.558080
lradius 20.834900
lthumb 23.518900 27.355200
rradius 47.386902
lwrist -21.047300
rhand -48.511600 -50.924198
rhumerus -38.715401 -33.534901 20.250700
lowerneck 13.066400 4.989410 2.712480
lhand -2.161090 -1.226980
ltibia 28.228600
head -0.918361 3.358610 -3.031910
rwrist -17.507200
lfingers 7.125020
rtoes 23.465700
lowerback -1.461320 -9.191510 2.733880
rfingers 7.125020
lclavicle 0.000000 -0.000000
upperneck 3.081040 6.604390 -6.973980
rfemur -58.109299 -8.225660 27.994200
thorax -0.903014 -6.178630 -0.400245
rclavicle 0.000000 -0.000000
rtibia 103.708000
lfoot -4.434740 14.629500
lhumerus 81.950996 20.529900 32.843700
rthumb -21.159901 -79.789497
root -33.928799 21.009899 33.226501 37.004700 -74.756500 696.989014
ltoes -7.781200
lfemur -15.720500 -26.205500 -16.000401
201
upperback -3.676680 -12.418600 2.781110
rfoot -7.450910 -9.652120
lradius 23.433300
lthumb -18.184401 29.759800
rradius 20.512300
lwrist -24.957300
rhand -40.416100 -53.168900
rhumerus -65.737099 -26.296301 2.049680
lowerneck 13.271900 7.437880 -3.758210
lhand -45.416500 0.589797
ltibia 28.607300
head -1.561000 4.339580 -3.578220
rwrist -1.296060
lfingers 7.125020
rtoes 7.942960
lowerback -1.782780 -9.291190 4.894700
rfingers 7.125020
lclavicle -0.000000 0.000000
upperneck 1.166810 8.453260 -11.497500
rfemur -46.546501 -1.621340 17.089199
thorax -3.231650 -6.324700 0.389130
rclavicle -0.000000 0.000000
rtibia 64.422203
lfoot -19.456800 0.176681
lhumerus 12.925700 55.117100 -21.512400
rthumb -13.368800 -82.720001
root -36.635502 19.408501 33.150101 12.320600 -78.866600 712.383972
ltoes -3.573830
lfemur 4.612770 -19.639200 -25.310101
202
upperback -6.490040 -8.490050 2.774720
rfoot 11.875200 -17.833500
lradius 22.358801
lthumb -24.299101 43.528000
rradius 17.453899
lwrist 10.926200
rhand -36.875500 -51.451900
rhumerus -87.810600 -21.790501 -3.305170
lowerneck 6.926330 3.103060 3.914280
lhand -51.782600 15.048100
ltibia 29.299500
head 0.838659 2.197320 -2.843470
rwrist 2.393030
lfingers 7.125020
rtoes -5.223090
lowerback -9.720050 -5.663380 9.651490
rfingers 7.125020
lclavicle -0.000000 0.000000
upperneck 5.609900 4.408200 -6.602610
rfemur -49.496498 24.313101 0.116421
thorax -2.386330 -4.629910 -2.987850
rclavicle -0.000000 0.000000
rtibia 36.972099
lfoot -22.838100 -9.922670
lhumerus -48.371799 22.754000 -23.513800
rthumb -9.954490 -81.196503
root -40.495899 17.949699 32.693001 19.954300 -73.121696 700.950012
ltoes -8.040320
lfemur 20.488300 -15.653600 -17.501101
203
upperback -7.301300 -6.227260 0.736984
rfoot 1.278420 1.358570
lradius 29.819300
lthumb -28.391001 50.535099
rradius 21.797300
lwrist 53.163300
rhand -35.814098 -47.075600
rhumerus -87.749100 -18.526199 -9.859000
lowerneck -2.760830 -1.275150 3.806890
lhand -56.057301 22.668200
ltibia 34.175800
head -1.773720 -1.052030 -0.147339
rwrist 5.062290
lfingers 7.125020
rtoes -16.475700
lowerback -3.466670 -4.546760 1.636820
rfingers 7.125020
lclavicle 0.000000 0.000000
upperneck -7.138610 -1.772680 1.519600
rfemur -66.591400 10.734200 2.504690
thorax -5.733720 -3.244970 -0.031528
rclavicle 0.000000 0.000000
rtibia 66.712799
lfoot -14.319900 -3.362330
lhumerus -37.707100 25.728701 53.771999
rthumb -8.930370 -76.866600
root -44.372200 16.197599 31.938000 16.407101 -61.000000 711.172974
ltoes 2.322910
lfemur 19.541000 -25.756701 -8.948940
